<?xml version="1.0" encoding="utf-8"?>
<!-- Generator: Adobe Illustrator 27.2.0, SVG Export Plug-In . SVG Version: 6.00 Build 0)  -->
<svg version="1.1" id="Capa_1" xmlns="http://www.w3.org/2000/svg" xmlns:xlink="http://www.w3.org/1999/xlink" x="0px" y="0px"
	 viewBox="0 0 128.68 38.3" style="enable-background:new 0 0 128.68 38.3;" xml:space="preserve">
<style type="text/css">
	.st0{fill:#CC7E6D;}
	.st1{fill:#C1836D;}
	.st2{fill:#DBC996;}
	.st3{fill:#CFBD80;}
	.st4{fill:#ECE39A;}
	.st5{fill:#EBE191;}
	.st6{fill:#F1E295;}
	.st7{fill:#CF676B;}
	.st8{fill:#FFFFFF;stroke:#CC3D67;stroke-miterlimit:10;}
</style>
<g>
	<polygon class="st0" points="58.02,29.28 50.19,29.28 46.19,21.19 50.19,13.11 58.02,13.11 54.02,21.19 	"/>
	<polygon class="st1" points="68.57,29.28 60.74,29.28 56.74,21.19 60.74,13.11 68.57,13.11 64.57,21.19 	"/>
	<polygon class="st2" points="79.13,29.28 71.3,29.28 67.3,21.19 71.3,13.11 79.13,13.11 75.13,21.19 	"/>
	<polygon class="st3" points="89.68,29.28 81.85,29.28 77.85,21.19 81.85,13.11 89.68,13.11 85.68,21.19 	"/>
	<polygon class="st4" points="100.23,29.28 92.4,29.28 88.4,21.19 92.4,13.11 100.23,13.11 96.23,21.19 	"/>
	<polygon class="st5" points="110.79,29.28 102.96,29.28 98.96,21.19 102.96,13.11 110.79,13.11 106.79,21.19 	"/>
	<polygon class="st6" points="121.34,29.28 113.51,29.28 109.51,21.19 113.51,13.11 121.34,13.11 117.34,21.19 	"/>
	<polygon class="st7" points="7.21,13.11 15.04,13.11 19.04,21.19 15.04,29.28 7.21,29.28 11.21,21.19 	"/>
	<circle class="st8" cx="32.51" cy="19.91" r="12.43"/>
	<g>
		<path d="M32.53,25.48c-0.64,0-1.23-0.07-1.77-0.22c-0.54-0.15-1.01-0.37-1.41-0.65c-0.4-0.28-0.71-0.63-0.93-1.04
			s-0.33-0.87-0.33-1.39c0-0.63,0.18-1.17,0.55-1.64c0.37-0.47,0.89-0.81,1.57-1.02v-0.04c-0.57-0.21-0.99-0.5-1.26-0.87
			c-0.27-0.38-0.41-0.81-0.41-1.31c0-0.59,0.16-1.11,0.49-1.55c0.33-0.44,0.79-0.78,1.38-1.03c0.59-0.25,1.29-0.37,2.1-0.37
			c0.81,0,1.51,0.12,2.09,0.35c0.59,0.23,1.04,0.57,1.36,1c0.32,0.43,0.48,0.95,0.48,1.55c0,0.48-0.14,0.91-0.41,1.3
			s-0.69,0.67-1.24,0.87v0.04c0.7,0.2,1.24,0.53,1.6,1.01s0.54,1.03,0.54,1.66c0,0.53-0.11,1.01-0.33,1.42
			c-0.22,0.42-0.52,0.77-0.92,1.05c-0.39,0.29-0.86,0.5-1.39,0.65C33.76,25.41,33.17,25.48,32.53,25.48z M32.53,23.65
			c0.39,0,0.72-0.07,1.01-0.2c0.29-0.13,0.51-0.32,0.67-0.56s0.24-0.52,0.24-0.84c0-0.51-0.17-0.92-0.51-1.22
			c-0.34-0.3-0.81-0.45-1.41-0.45c-0.4,0-0.75,0.07-1.04,0.2c-0.29,0.13-0.52,0.33-0.68,0.58c-0.16,0.25-0.24,0.55-0.24,0.89
			c0,0.33,0.08,0.61,0.23,0.85c0.16,0.24,0.38,0.43,0.68,0.56C31.77,23.58,32.12,23.65,32.53,23.65z M32.5,18.77
			c0.52,0,0.93-0.12,1.21-0.37c0.28-0.25,0.43-0.57,0.43-0.98c0-0.41-0.14-0.74-0.43-0.99c-0.28-0.25-0.69-0.37-1.21-0.37
			c-0.35,0-0.64,0.06-0.89,0.17c-0.24,0.11-0.43,0.27-0.56,0.48c-0.13,0.21-0.19,0.45-0.19,0.72c0,0.27,0.06,0.51,0.19,0.71
			c0.13,0.2,0.32,0.36,0.56,0.47C31.86,18.71,32.15,18.77,32.5,18.77z"/>
	</g>
</g>
</svg>
